<svg viewBox="0 0 800 300" xmlns="http://www.w3.org/2000/svg">
  <rect x="20" y="20" width="120" height="60" fill="#3B82F6" rx="8" />
  <text x="80" y="55" text-anchor="middle" fill="white" font-size="14" font-weight="bold">Video Input</text>
  <rect x="180" y="20" width="120" height="60" fill="#10B981" rx="8" />
  <text x="240" y="50" text-anchor="middle" fill="white" font-size="14" font-weight="bold">Detection</text>
  <text x="240" y="65" text-anchor="middle" fill="white" font-size="10">(Vehicles/Plates)</text>
  <path d="M140 50 L180 50" stroke="#374151" stroke-width="2" marker-end="url(#arrowhead)" />
  <rect x="340" y="20" width="120" height="60" fill="#10B981" rx="8" />
  <text x="400" y="50" text-anchor="middle" fill="white" font-size="14" font-weight="bold">Tracking</text>
  <text x="400" y="65" text-anchor="middle" fill="white" font-size="10">(IOU-based)</text>
  <path d="M300 50 L340 50" stroke="#374151" stroke-width="2" marker-end="url(#arrowhead)" />
  <rect x="500" y="20" width="120" height="60" fill="#F59E0B" rx="8" />
  <text x="560" y="50" text-anchor="middle" fill="white" font-size="14" font-weight="bold">ROI Filter</text>
  <text x="560" y="65" text-anchor="middle" fill="white" font-size="10">(Gate Area)</text>
  <path d="M460 50 L500 50" stroke="#374151" stroke-width="2" marker-end="url(#arrowhead)" />
  <rect x="660" y="20" width="120" height="60" fill="#F59E0B" rx="8" />
  <text x="720" y="50" text-anchor="middle" fill="white" font-size="14" font-weight="bold">Session</text>
  <text x="720" y="65" text-anchor="middle" fill="white" font-size="10">(Crop Collection)</text>
  <path d="M620 50 L660 50" stroke="#374151" stroke-width="2" marker-end="url(#arrowhead)" />
  <rect x="660" y="120" width="120" height="60" fill="#8B5CF6" rx="8" />
  <text x="720" y="145" text-anchor="middle" fill="white" font-size="14" font-weight="bold">Best Frame</text>
  <text x="720" y="160" text-anchor="middle" fill="white" font-size="10">(Quality Score)</text>
  <path d="M720 80 L720 120" stroke="#374151" stroke-width="2" marker-end="url(#arrowhead)" />
  <rect x="500" y="120" width="120" height="60" fill="#8B5CF6" rx="8" />
  <text x="560" y="145" text-anchor="middle" fill="white" font-size="14" font-weight="bold">OCR</text>
  <text x="560" y="160" text-anchor="middle" fill="white" font-size="10">(Bengali Text)</text>
  <path d="M660 150 L620 150" stroke="#374151" stroke-width="2" marker-end="url(#arrowhead)" />
  <rect x="340" y="120" width="120" height="60" fill="#EF4444" rx="8" />
  <text x="400" y="145" text-anchor="middle" fill="white" font-size="14" font-weight="bold">Voting</text>
  <text x="400" y="160" text-anchor="middle" fill="white" font-size="10">(Consensus)</text>
  <path d="M500 150 L460 150" stroke="#374151" stroke-width="2" marker-end="url(#arrowhead)" />
  <rect x="180" y="120" width="120" height="60" fill="#EF4444" rx="8" />
  <text x="240" y="145" text-anchor="middle" fill="white" font-size="14" font-weight="bold">Validation</text>
  <text x="240" y="160" text-anchor="middle" fill="white" font-size="10">(Format Rules)</text>
  <path d="M340 150 L300 150" stroke="#374151" stroke-width="2" marker-end="url(#arrowhead)" />
  <rect x="20" y="120" width="120" height="60" fill="#EF4444" rx="8" />
  <text x="80" y="145" text-anchor="middle" fill="white" font-size="14" font-weight="bold">De-duplicate</text>
  <text x="80" y="160" text-anchor="middle" fill="white" font-size="10">(Time Window)</text>
  <path d="M180 150 L140 150" stroke="#374151" stroke-width="2" marker-end="url(#arrowhead)" />
  <rect x="20" y="220" width="120" height="60" fill="#06B6D4" rx="8" />
  <text x="80" y="245" text-anchor="middle" fill="white" font-size="14" font-weight="bold">Upload</text>
  <text x="80" y="260" text-anchor="middle" fill="white" font-size="10">(Event Store)</text>
  <path d="M80 180 L80 220" stroke="#374151" stroke-width="2" marker-end="url(#arrowhead)" />
  <rect x="180" y="220" width="120" height="60" fill="#06B6D4" rx="8" />
  <text x="240" y="245" text-anchor="middle" fill="white" font-size="14" font-weight="bold">Dashboard</text>
  <text x="240" y="260" text-anchor="middle" fill="white" font-size="10">(View/Search)</text>
  <path d="M140 250 L180 250" stroke="#374151" stroke-width="2" marker-end="url(#arrowhead)" />
  <defs>
    <marker id="arrowhead" markerWidth="10" markerHeight="10" refX="9" refY="3" orient="auto">
      <polygon points="0 0, 10 3, 0 6" fill="#374151" />
    </marker>
  </defs>
</svg>
